<?xml version="1.0" encoding="UTF-8" standalone="no"?>
<!-- Created with Inkscape (http://www.inkscape.org/) -->

<svg
   width="193.05669mm"
   height="189.62764mm"
   viewBox="0 0 193.05669 189.62764"
   version="1.1"
   id="svg1"
   xmlns="http://www.w3.org/2000/svg"
   xmlns:svg="http://www.w3.org/2000/svg">
  <defs
     id="defs1" />
  <g
     id="layer1"
     transform="translate(-8.6500594,-52.837846)">
    <g
       id="g3"
       transform="matrix(0.08512556,0,0,0.08512556,150.14269,139.46263)"
       style="fill:#59514b;fill-opacity:1">&#10;	&#10;	&#10;	<path
   class="st0"
   d="m 44.735,122.983 v 182.95 c 0,13.576 -5.39,26.596 -15.002,36.187 L 8.684,363.119 C 2.938,368.845 0,376.474 0,384.06 c 0,6.589 2.225,13.277 6.688,18.732 l 4.221,5.155 c 5.69,6.938 14.118,10.852 22.902,10.852 1.812,0 3.622,-0.171 5.448,-0.506 l 89.657,-16.813 -6.802,30.632 v -0.021 c -0.542,2.452 -0.813,4.92 -0.813,7.344 0,13.555 8.2,26.076 21.206,31.296 l 16.585,6.638 c 4.05,1.619 8.314,2.41 12.521,2.41 8.898,0 17.654,-3.537 24.129,-10.161 l 56.857,-58.212 80.901,65.856 c 6.944,5.654 15.444,8.499 23.9,8.492 8.428,0.006 16.928,-2.831 23.872,-8.471 l 3.423,-2.78 c 9.127,-7.423 13.99,-18.361 13.99,-29.399 0,-6.93 -1.926,-13.976 -5.847,-20.2 l -3.109,-4.906 54.02,9.947 c 2.04,0.378 4.079,0.564 6.118,0.564 10.481,0 20.521,-4.906 26.966,-13.491 l 2.111,-2.824 c 4.506,-6.011 6.76,-13.156 6.76,-20.236 0,-8.157 -2.98,-16.343 -8.814,-22.739 l -33.142,-36.293 -0.114,-0.114 c -3.123,-3.208 -5.875,-5.654 -8,-7.58 -1.597,-1.44 -2.809,-2.581 -3.622,-3.465 -1.241,-1.376 -1.583,-1.947 -2.01,-3.066 -0.399,-1.112 -0.827,-3.138 -0.827,-6.91 v -42.76 l 82.155,-70.07 0.514,-4.228 c 0.057,-0.399 0.157,-1.39 0.157,-2.874 -10e-4,-3.708 -0.643,-10.581 -4.307,-18.896 -3.651,-8.313 -10.354,-17.947 -21.776,-27.066 l -5.305,-4.236 -58.739,27.266 v -47.944 h 0.099 m -21.904,0 h -0.099 v 19.28 c -2.082,5.426 -4.963,10.753 -8.771,15.93 -12.321,16.713 -33.712,31.666 -61.135,42.24 -27.41,10.596 -60.765,16.871 -96.702,16.864 -47.93,0.021 -91.24,-11.181 -122,-28.799 -15.401,-8.799 -27.608,-19.166 -35.837,-30.304 -3.878,-5.248 -6.788,-10.646 -8.884,-16.15 v -19.06 H 66.64 M 407.27,260.92 v 52.871 c 0,4.735 0.456,8.913 1.625,12.827 0.884,2.924 2.196,5.633 3.75,7.922 2.367,3.465 4.992,5.904 7.459,8.178 2.481,2.26 4.963,4.428 7.758,7.301 l 32.842,35.973 c 2.054,2.253 3.08,5.077 3.095,7.964 -0.015,2.503 -0.77,4.956 -2.368,7.095 l -2.125,2.824 c -2.253,3.009 -5.775,4.728 -9.44,4.728 -0.713,0 -1.44,-0.064 -2.168,-0.2 l -103.205,-19.009 29.819,47.202 c 1.668,2.66 2.452,5.569 2.467,8.507 -0.015,4.692 -2.04,9.256 -5.904,12.4 l -3.423,2.781 c -2.938,2.388 -6.474,3.558 -10.054,3.566 -3.594,0 -7.13,-1.184 -10.082,-3.58 l -79.36,-64.6 19.38,-19.829 -15.673,-15.302 -91.596,93.778 c -2.268,2.325 -5.319,3.551 -8.456,3.558 -1.483,0 -2.967,-0.278 -4.392,-0.848 l -16.571,-6.631 c -4.564,-1.811 -7.43,-6.239 -7.444,-10.96 0,-0.848 0.099,-1.704 0.285,-2.56 v -0.014 l 14.004,-63.018 -122.269,22.916 -1.412,0.128 c -2.282,0 -4.477,-1.012 -5.946,-2.81 l -4.221,-5.155 c -1.17,-1.448 -1.726,-3.124 -1.74,-4.864 0.014,-2.011 0.756,-3.935 2.253,-5.44 L 45.207,357.62 C 58.939,343.923 66.64,325.327 66.64,305.932 V 170.379 c 14.788,18.132 37.234,33.021 64.758,43.674 29.291,11.316 64.316,17.84 101.964,17.847 50.184,-0.021 95.703,-11.573 129.244,-30.724 15.23,-8.714 27.837,-19.095 37.363,-30.782 v 34.853 l 77.235,-35.844 c 5.562,5.406 8.656,10.375 10.439,14.404 1.197,2.716 1.797,4.998 2.11,6.76 z"
   id="path3"
   style="fill:#59514b;fill-opacity:1" />
&#10;</g>
    <path
       id="path7"
       style="fill:none;stroke:#59514b;stroke-width:1.97364;stroke-linecap:round;stroke-linejoin:round;stroke-dasharray:none;stroke-opacity:1"
       d="m 68.611954,174.29771 c 0,0 -2.947952,-60.88507 2.077741,-77.553088 9.419722,-3.375976 19.394724,-3.196056 28.653326,0.246155 5.039719,16.636993 2.538279,77.306323 2.538279,77.306323" />
    <path
       fill="#000000"
       d="m 145.82295,125.6999 v 4.12938 c 7.19608,1.35313 13.58909,3.47472 20.48932,6.3836 v 0.004 c 1.28152,0.45503 2.19604,1.20993 2.6815,2.11624 0.49381,0.92199 0.52663,1.96883 0.17455,2.85308 -0.62212,1.56526 -2.47802,2.55438 -4.57291,2.03507 -1.03387,1.99046 -2.39029,3.95781 -4.23589,5.8871 1.11294,0.69969 2.24885,1.31434 3.4149,1.85112 h 10.91266 c 2.01924,-5.43358 3.29391,-10.95696 3.8301,-16.07559 -10.44003,-1.52024 -20.33909,-4.66198 -29.74778,-9.18341 h -2.94674 z"
       id="path1-9"
       style="fill:none;stroke:#59514b;stroke-width:1.97364;stroke-dasharray:none;stroke-opacity:1" />
    <g
       id="g11"
       transform="matrix(0.08512556,0,0,0.08512556,105.98278,139.70939)"
       style="fill:#59514b;fill-opacity:1">&#10;	<path
   class="st0"
   d="m 157.11,175.342 c 19.252,6.695 44.393,10.788 76.251,10.795 42.525,-0.014 73.114,-7.765 93.621,-19.074 10.254,-5.669 17.983,-12.25 23.288,-19.366 5.277,-7.095 8.128,-14.817 8.128,-22.404 0,-7.922 -2.78,-15.936 -8.1,-23.166 -8,-10.874 -21.462,-20.179 -40.7,-26.889 -19.252,-6.695 -44.394,-10.788 -76.238,-10.795 -42.525,0.015 -73.115,7.758 -93.636,19.074 -10.239,5.669 -17.982,12.25 -23.273,19.366 -5.291,7.095 -8.129,14.824 -8.129,22.41 -0.014,7.915 2.781,15.936 8.1,23.167 8.002,10.874 21.464,20.172 40.688,26.882 z m -28.935,-63.746 c 5.632,-7.622 16.542,-15.879 33.812,-22.096 17.27,-6.232 40.814,-10.461 71.375,-10.453 40.8,-0.021 69.121,7.095 86.619,16.578 8.756,4.728 14.788,10.011 18.539,15.131 3.75,5.141 5.262,10.032 5.276,14.538 0,3.886 -1.469,8.599 -5.248,13.69 -5.633,7.623 -16.543,15.872 -33.827,22.097 -17.255,6.232 -40.814,10.46 -71.36,10.452 -40.8,0.021 -69.135,-7.095 -86.62,-16.578 -8.77,-4.728 -14.802,-10.011 -18.538,-15.131 -3.751,-5.141 -5.277,-10.025 -5.277,-14.532 0,-3.892 1.455,-8.597 5.249,-13.696 z"
   id="path9"
   style="fill:#59514b;fill-opacity:1" />
&#10;	<path
   class="st0"
   d="m 203.3,146.977 c 7.815,2.453 17.712,3.872 30.062,3.879 16.514,-0.014 28.649,-2.688 37.249,-6.966 4.306,-2.16 7.743,-4.728 10.282,-7.808 2.524,-3.059 4.178,-6.781 4.193,-10.795 0.014,-4.014 -1.598,-7.893 -4.15,-11.023 -3.878,-4.728 -9.726,-8.186 -17.526,-10.66 -7.815,-2.46 -17.697,-3.878 -30.047,-3.886 -16.528,0.014 -28.65,2.688 -37.263,6.966 -4.292,2.153 -7.744,4.727 -10.282,7.808 -2.524,3.059 -4.179,6.781 -4.179,10.795 -0.014,4.014 1.583,7.901 4.15,11.031 3.877,4.726 9.724,8.185 17.511,10.659 z m -6.974,-21.997 c 0.257,-0.891 2.61,-3.893 8.656,-6.296 5.99,-2.439 15.33,-4.37 28.379,-4.363 14.945,-0.022 25.07,2.396 30.789,5.212 2.852,1.398 4.592,2.867 5.433,3.922 0.856,1.091 0.884,1.612 0.899,1.832 l -0.1,0.307 c -0.242,0.884 -2.61,3.893 -8.656,6.296 -5.99,2.438 -15.33,4.371 -28.365,4.364 -14.959,0.021 -25.084,-2.389 -30.789,-5.212 -2.867,-1.39 -4.592,-2.86 -5.448,-3.914 -0.856,-1.091 -0.87,-1.612 -0.884,-1.84 z"
   id="path10"
   style="fill:#59514b;fill-opacity:1" />
&#10;	<path
   class="st0"
   d="m 507.694,174.963 c -3.651,-8.313 -10.354,-17.947 -21.776,-27.066 l -5.305,-4.236 -58.739,27.266 v -47.944 h 0.099 C 422.001,107.981 415.57,94.048 405.302,82.376 389.814,64.8 365.7,51.145 336.095,41.441 306.461,31.78 271.224,26.254 233.361,26.247 c -50.512,0.028 -96.288,9.79 -130.4,26.218 -17.04,8.242 -31.23,18.168 -41.541,29.911 -10.282,11.672 -16.699,25.605 -16.685,40.607 v 182.95 c 0,13.576 -5.39,26.596 -15.002,36.187 L 8.684,363.119 C 2.938,368.845 0,376.474 0,384.06 c 0,6.589 2.225,13.277 6.688,18.732 l 4.221,5.155 c 5.69,6.938 14.118,10.852 22.902,10.852 1.812,0 3.622,-0.171 5.448,-0.506 l 89.657,-16.813 -6.802,30.632 v -0.021 c -0.542,2.452 -0.813,4.92 -0.813,7.344 0,13.555 8.2,26.076 21.206,31.296 l 16.585,6.638 c 4.05,1.619 8.314,2.41 12.521,2.41 8.898,0 17.654,-3.537 24.129,-10.161 l 56.857,-58.212 80.901,65.856 c 6.944,5.654 15.444,8.499 23.9,8.492 8.428,0.006 16.928,-2.831 23.872,-8.471 l 3.423,-2.78 c 9.127,-7.423 13.99,-18.361 13.99,-29.399 0,-6.93 -1.926,-13.976 -5.847,-20.2 l -3.109,-4.906 54.02,9.947 c 2.04,0.378 4.079,0.564 6.118,0.564 10.481,0 20.521,-4.906 26.966,-13.491 l 2.111,-2.824 c 4.506,-6.011 6.76,-13.156 6.76,-20.236 0,-8.157 -2.98,-16.343 -8.814,-22.739 l -33.142,-36.293 -0.114,-0.114 c -3.123,-3.208 -5.875,-5.654 -8,-7.58 -1.597,-1.44 -2.809,-2.581 -3.622,-3.465 -1.241,-1.376 -1.583,-1.947 -2.01,-3.066 -0.399,-1.112 -0.827,-3.138 -0.827,-6.91 v -42.76 l 82.155,-70.07 0.514,-4.228 c 0.057,-0.399 0.157,-1.39 0.157,-2.874 -10e-4,-3.708 -0.643,-10.581 -4.307,-18.896 z M 66.64,122.984 c 0.028,-8.685 3.552,-17.32 11.252,-26.176 11.48,-13.212 32.429,-25.754 59.524,-34.546 27.095,-8.841 60.222,-14.118 95.946,-14.111 47.616,-0.028 90.669,9.419 120.859,24.036 15.102,7.28 26.939,15.836 34.596,24.62 7.716,8.856 11.238,17.491 11.252,26.176 h -0.099 v 19.28 c -2.082,5.426 -4.963,10.753 -8.771,15.93 -12.321,16.713 -33.712,31.666 -61.135,42.24 -27.41,10.596 -60.765,16.871 -96.702,16.864 -47.93,0.021 -91.24,-11.181 -122,-28.799 -15.401,-8.799 -27.608,-19.166 -35.837,-30.304 -3.878,-5.248 -6.788,-10.646 -8.884,-16.15 v -19.06 z M 407.27,260.92 v 52.871 c 0,4.735 0.456,8.913 1.625,12.827 0.884,2.924 2.196,5.633 3.75,7.922 2.367,3.465 4.992,5.904 7.459,8.178 2.481,2.26 4.963,4.428 7.758,7.301 l 32.842,35.973 c 2.054,2.253 3.08,5.077 3.095,7.964 -0.015,2.503 -0.77,4.956 -2.368,7.095 l -2.125,2.824 c -2.253,3.009 -5.775,4.728 -9.44,4.728 -0.713,0 -1.44,-0.064 -2.168,-0.2 l -103.205,-19.009 29.819,47.202 c 1.668,2.66 2.452,5.569 2.467,8.507 -0.015,4.692 -2.04,9.256 -5.904,12.4 l -3.423,2.781 c -2.938,2.388 -6.474,3.558 -10.054,3.566 -3.594,0 -7.13,-1.184 -10.082,-3.58 l -79.36,-64.6 19.38,-19.829 -15.673,-15.302 -91.596,93.778 c -2.268,2.325 -5.319,3.551 -8.456,3.558 -1.483,0 -2.967,-0.278 -4.392,-0.848 l -16.571,-6.631 c -4.564,-1.811 -7.43,-6.239 -7.444,-10.96 0,-0.848 0.099,-1.704 0.285,-2.56 v -0.014 l 14.004,-63.018 -122.269,22.916 -1.412,0.128 c -2.282,0 -4.477,-1.012 -5.946,-2.81 l -4.221,-5.155 c -1.17,-1.448 -1.726,-3.124 -1.74,-4.864 0.014,-2.011 0.756,-3.935 2.253,-5.44 L 45.207,357.62 C 58.939,343.923 66.64,325.327 66.64,305.932 V 170.379 c 14.788,18.132 37.234,33.021 64.758,43.674 29.291,11.316 64.316,17.84 101.964,17.847 50.184,-0.021 95.703,-11.573 129.244,-30.724 15.23,-8.714 27.837,-19.095 37.363,-30.782 v 34.853 l 77.235,-35.844 c 5.562,5.406 8.656,10.375 10.439,14.404 1.197,2.716 1.797,4.998 2.11,6.76 z"
   id="path11"
   style="fill:#59514b;fill-opacity:1" />
&#10;</g>
    <g
       id="g14"
       transform="matrix(0.08512556,0,0,0.08512556,19.142937,139.70939)"
       style="fill:#59514b;fill-opacity:1">&#10;	<path
   class="st0"
   d="m 157.11,175.342 c 19.252,6.695 44.393,10.788 76.251,10.795 42.525,-0.014 73.114,-7.765 93.621,-19.074 10.254,-5.669 17.983,-12.25 23.288,-19.366 5.277,-7.095 8.128,-14.817 8.128,-22.404 0,-7.922 -2.78,-15.936 -8.1,-23.166 -8,-10.874 -21.462,-20.179 -40.7,-26.889 -19.252,-6.695 -44.394,-10.788 -76.238,-10.795 -42.525,0.015 -73.115,7.758 -93.636,19.074 -10.239,5.669 -17.982,12.25 -23.273,19.366 -5.291,7.095 -8.129,14.824 -8.129,22.41 -0.014,7.915 2.781,15.936 8.1,23.167 8.002,10.874 21.464,20.172 40.688,26.882 z m -28.935,-63.746 c 5.632,-7.622 16.542,-15.879 33.812,-22.096 17.27,-6.232 40.814,-10.461 71.375,-10.453 40.8,-0.021 69.121,7.095 86.619,16.578 8.756,4.728 14.788,10.011 18.539,15.131 3.75,5.141 5.262,10.032 5.276,14.538 0,3.886 -1.469,8.599 -5.248,13.69 -5.633,7.623 -16.543,15.872 -33.827,22.097 -17.255,6.232 -40.814,10.46 -71.36,10.452 -40.8,0.021 -69.135,-7.095 -86.62,-16.578 -8.77,-4.728 -14.802,-10.011 -18.538,-15.131 -3.751,-5.141 -5.277,-10.025 -5.277,-14.532 0,-3.892 1.455,-8.597 5.249,-13.696 z"
   id="path12"
   style="fill:#59514b;fill-opacity:1" />
&#10;	<path
   class="st0"
   d="m 203.3,146.977 c 7.815,2.453 17.712,3.872 30.062,3.879 16.514,-0.014 28.649,-2.688 37.249,-6.966 4.306,-2.16 7.743,-4.728 10.282,-7.808 2.524,-3.059 4.178,-6.781 4.193,-10.795 0.014,-4.014 -1.598,-7.893 -4.15,-11.023 -3.878,-4.728 -9.726,-8.186 -17.526,-10.66 -7.815,-2.46 -17.697,-3.878 -30.047,-3.886 -16.528,0.014 -28.65,2.688 -37.263,6.966 -4.292,2.153 -7.744,4.727 -10.282,7.808 -2.524,3.059 -4.179,6.781 -4.179,10.795 -0.014,4.014 1.583,7.901 4.15,11.031 3.877,4.726 9.724,8.185 17.511,10.659 z m -6.974,-21.997 c 0.257,-0.891 2.61,-3.893 8.656,-6.296 5.99,-2.439 15.33,-4.37 28.379,-4.363 14.945,-0.022 25.07,2.396 30.789,5.212 2.852,1.398 4.592,2.867 5.433,3.922 0.856,1.091 0.884,1.612 0.899,1.832 l -0.1,0.307 c -0.242,0.884 -2.61,3.893 -8.656,6.296 -5.99,2.438 -15.33,4.371 -28.365,4.364 -14.959,0.021 -25.084,-2.389 -30.789,-5.212 -2.867,-1.39 -4.592,-2.86 -5.448,-3.914 -0.856,-1.091 -0.87,-1.612 -0.884,-1.84 z"
   id="path13"
   style="fill:#59514b;fill-opacity:1" />
&#10;	<path
   class="st0"
   d="m 507.694,174.963 c -3.651,-8.313 -10.354,-17.947 -21.776,-27.066 l -5.305,-4.236 -58.739,27.266 v -47.944 h 0.099 C 422.001,107.981 415.57,94.048 405.302,82.376 389.814,64.8 365.7,51.145 336.095,41.441 306.461,31.78 271.224,26.254 233.361,26.247 c -50.512,0.028 -96.288,9.79 -130.4,26.218 -17.04,8.242 -31.23,18.168 -41.541,29.911 -10.282,11.672 -16.699,25.605 -16.685,40.607 v 182.95 c 0,13.576 -5.39,26.596 -15.002,36.187 L 8.684,363.119 C 2.938,368.845 0,376.474 0,384.06 c 0,6.589 2.225,13.277 6.688,18.732 l 4.221,5.155 c 5.69,6.938 14.118,10.852 22.902,10.852 1.812,0 3.622,-0.171 5.448,-0.506 l 89.657,-16.813 -6.802,30.632 v -0.021 c -0.542,2.452 -0.813,4.92 -0.813,7.344 0,13.555 8.2,26.076 21.206,31.296 l 16.585,6.638 c 4.05,1.619 8.314,2.41 12.521,2.41 8.898,0 17.654,-3.537 24.129,-10.161 l 56.857,-58.212 80.901,65.856 c 6.944,5.654 15.444,8.499 23.9,8.492 8.428,0.006 16.928,-2.831 23.872,-8.471 l 3.423,-2.78 c 9.127,-7.423 13.99,-18.361 13.99,-29.399 0,-6.93 -1.926,-13.976 -5.847,-20.2 l -3.109,-4.906 54.02,9.947 c 2.04,0.378 4.079,0.564 6.118,0.564 10.481,0 20.521,-4.906 26.966,-13.491 l 2.111,-2.824 c 4.506,-6.011 6.76,-13.156 6.76,-20.236 0,-8.157 -2.98,-16.343 -8.814,-22.739 l -33.142,-36.293 -0.114,-0.114 c -3.123,-3.208 -5.875,-5.654 -8,-7.58 -1.597,-1.44 -2.809,-2.581 -3.622,-3.465 -1.241,-1.376 -1.583,-1.947 -2.01,-3.066 -0.399,-1.112 -0.827,-3.138 -0.827,-6.91 v -42.76 l 82.155,-70.07 0.514,-4.228 c 0.057,-0.399 0.157,-1.39 0.157,-2.874 -10e-4,-3.708 -0.643,-10.581 -4.307,-18.896 z M 66.64,122.984 c 0.028,-8.685 3.552,-17.32 11.252,-26.176 11.48,-13.212 32.429,-25.754 59.524,-34.546 27.095,-8.841 60.222,-14.118 95.946,-14.111 47.616,-0.028 90.669,9.419 120.859,24.036 15.102,7.28 26.939,15.836 34.596,24.62 7.716,8.856 11.238,17.491 11.252,26.176 h -0.099 v 19.28 c -2.082,5.426 -4.963,10.753 -8.771,15.93 -12.321,16.713 -33.712,31.666 -61.135,42.24 -27.41,10.596 -60.765,16.871 -96.702,16.864 -47.93,0.021 -91.24,-11.181 -122,-28.799 -15.401,-8.799 -27.608,-19.166 -35.837,-30.304 -3.878,-5.248 -6.788,-10.646 -8.884,-16.15 v -19.06 z M 407.27,260.92 v 52.871 c 0,4.735 0.456,8.913 1.625,12.827 0.884,2.924 2.196,5.633 3.75,7.922 2.367,3.465 4.992,5.904 7.459,8.178 2.481,2.26 4.963,4.428 7.758,7.301 l 32.842,35.973 c 2.054,2.253 3.08,5.077 3.095,7.964 -0.015,2.503 -0.77,4.956 -2.368,7.095 l -2.125,2.824 c -2.253,3.009 -5.775,4.728 -9.44,4.728 -0.713,0 -1.44,-0.064 -2.168,-0.2 l -103.205,-19.009 29.819,47.202 c 1.668,2.66 2.452,5.569 2.467,8.507 -0.015,4.692 -2.04,9.256 -5.904,12.4 l -3.423,2.781 c -2.938,2.388 -6.474,3.558 -10.054,3.566 -3.594,0 -7.13,-1.184 -10.082,-3.58 l -79.36,-64.6 19.38,-19.829 -15.673,-15.302 -91.596,93.778 c -2.268,2.325 -5.319,3.551 -8.456,3.558 -1.483,0 -2.967,-0.278 -4.392,-0.848 l -16.571,-6.631 c -4.564,-1.811 -7.43,-6.239 -7.444,-10.96 0,-0.848 0.099,-1.704 0.285,-2.56 v -0.014 l 14.004,-63.018 -122.269,22.916 -1.412,0.128 c -2.282,0 -4.477,-1.012 -5.946,-2.81 l -4.221,-5.155 c -1.17,-1.448 -1.726,-3.124 -1.74,-4.864 0.014,-2.011 0.756,-3.935 2.253,-5.44 L 45.207,357.62 C 58.939,343.923 66.64,325.327 66.64,305.932 V 170.379 c 14.788,18.132 37.234,33.021 64.758,43.674 29.291,11.316 64.316,17.84 101.964,17.847 50.184,-0.021 95.703,-11.573 129.244,-30.724 15.23,-8.714 27.837,-19.095 37.363,-30.782 v 34.853 l 77.235,-35.844 c 5.562,5.406 8.656,10.375 10.439,14.404 1.197,2.716 1.797,4.998 2.11,6.76 z"
   id="path14"
   style="fill:#59514b;fill-opacity:1" />
&#10;</g>
    <path
       id="path19"
       style="fill:none;stroke:#59514b;stroke-width:2.06564;stroke-linecap:round;stroke-linejoin:round;stroke-opacity:1"
       d="m 179.24626,144.35001 c 3.68226,1.39342 5.80506,3.66318 5.80506,6.17252 0,4.21964 -6.7424,7.64019 -15.05934,7.64019 -8.31706,0 -15.05932,-3.42055 -15.05932,-7.64019 0,-2.70837 2.29809,-5.17474 6.48714,-6.5316" />
    <rect
       style="fill:none;fill-opacity:1;stroke:#59514b;stroke-width:1.8991;stroke-linecap:round;stroke-linejoin:round;stroke-dasharray:none;stroke-opacity:1"
       id="rect19"
       width="191.15759"
       height="187.72855"
       x="9.5996094"
       y="53.787395" />
    <text
       xml:space="preserve"
       style="font-size:42.6679px;font-family:'Tw Cen MT Condensed';-inkscape-font-specification:'Tw Cen MT Condensed, ';letter-spacing:1.97364px;word-spacing:0px;fill:#59514b;fill-opacity:1;stroke:#59514b;stroke-width:1.33337;stroke-linecap:round;stroke-linejoin:round;stroke-dasharray:none;stroke-opacity:1"
       x="21.105579"
       y="216.46606"
       id="text19"><tspan
         id="tspan19"
         x="21.105579"
         y="216.46606"
         style="letter-spacing:1.97364px;word-spacing:0px;stroke-width:1.33337">Prostředník</tspan></text>
    <path
       style="fill:none;fill-opacity:1;stroke:#59514b;stroke-width:0.5;stroke-linecap:round;stroke-linejoin:round;stroke-dasharray:none;stroke-opacity:1"
       d="m 98.375002,572.06251 v 8.8125"
       id="path15"
       transform="matrix(3.9472628,0,0,3.9472628,-312.16003,-2127.8308)" />
    <path
       style="fill:none;fill-opacity:1;stroke:#59514b;stroke-width:0.5;stroke-linecap:round;stroke-linejoin:round;stroke-dasharray:none;stroke-opacity:1"
       d="m 100.4375,565.18751 v 15.75"
       id="path16"
       transform="matrix(3.9472628,0,0,3.9472628,-312.16003,-2127.8308)" />
    <path
       style="fill:none;fill-opacity:1;stroke:#59514b;stroke-width:0.5;stroke-linecap:round;stroke-linejoin:round;stroke-dasharray:none;stroke-opacity:1"
       d="m 98.375002,572.06251 v 8.8125"
       id="path17"
       transform="matrix(3.9472628,0,0,3.9472628,-294.89075,-2127.3374)" />
  </g>
</svg>
