<?xml version="1.0" encoding="iso-8859-1"?>
<!-- Uploaded to: SVG Repo, www.svgrepo.com, Generator: SVG Repo Mixer Tools -->
<svg height="800px" width="800px" version="1.1" id="Layer_1" xmlns="http://www.w3.org/2000/svg" xmlns:xlink="http://www.w3.org/1999/xlink" 
	 viewBox="0 0 504.129 504.129" xml:space="preserve">
<g>
	<path style="fill:#381F0B;" d="M392.224,316.403c-8.342,8.334-21.843,8.342-30.184,0l0,0c-8.342-8.342-8.326-21.843,0-30.184
		l105.645-105.637c8.357-8.35,21.858-8.357,30.2-0.016l0,0c8.342,8.342,8.318,21.835-0.024,30.176L392.224,316.403z"/>
	<path style="fill:#381F0B;" d="M331.516,289.385c-9.066-0.016-16.431-7.357-16.431-16.447l0,0c0-9.074,7.365-16.431,16.431-16.439
		l115.105,0.008c9.074,0,16.431,7.357,16.431,16.431l0,0c0,9.09-7.357,16.431-16.431,16.447H331.516z"/>
	<path style="fill:#381F0B;" d="M461.54,163.78c0-3.293,2.67-5.971,5.963-5.963l0,0c3.277,0,5.939,2.662,5.939,5.955v41.661
		c0,3.285-2.662,5.955-5.939,5.955l0,0c-3.293,0-5.955-2.67-5.963-5.963V163.78z"/>
</g>
<path style="fill:#6D4116;" d="M391.601,54.771H128.528c-22.355,0-40.48,9.901-40.48,32.248v331.366
	c0,14.887,8.121,23.576,20.102,27.798c21.945,9.216,81.573,15.833,151.914,15.833c70.325,0,129.969-6.617,151.906-15.825
	c11.973-4.23,20.094-12.926,20.094-27.806V87.011C432.073,64.665,413.948,54.771,391.601,54.771z"/>
<path style="fill:#59320F;" d="M88.056,418.386c0,14.887,8.121,23.576,20.102,27.798c21.945,9.216,81.573,15.833,151.914,15.833
	c70.325,0,129.969-6.617,151.906-15.825c11.973-4.23,20.094-12.926,20.094-27.806V87.011c0-22.347-18.125-32.248-40.472-32.248"/>
<ellipse style="fill:#B27747;" cx="260.064" cy="65.72" rx="161.052" ry="23.607"/>
<path style="fill:#C18753;" d="M421.116,65.72c0,13.044-72.09,23.607-161.044,23.607S99.005,78.772,99.005,65.72"/>
<path style="fill:#59320F;" d="M134.435,212.751l-77.028-77.044c-8.074-8.042-21.157-8.042-29.231,0
	c-8.05,8.074-34.658-5.435-26.616,2.599l124.014,124.03c2.56,2.544,5.624,4.198,8.862,5.136V212.751z"/>
<ellipse style="fill:#B27747;" cx="28.144" cy="135.297" rx="28.144" ry="7.979"/>
<path style="fill:#C18753;" d="M56.288,135.297c0,4.403-12.603,7.979-28.152,7.979S0,139.7,0,135.297"/>
<path style="fill:#59320F;" d="M77.942,182.929c0,4.191-3.411,7.593-7.578,7.593H29.042c-4.198,0-7.585-3.403-7.585-7.593l0,0
	c0-4.183,3.387-7.585,7.585-7.585h41.322C74.531,175.343,77.942,178.746,77.942,182.929L77.942,182.929z"/>
<g>
	<path style="fill:#7A4D25;" d="M183.335,192.208c0,2.339-1.883,4.222-4.214,4.222l0,0c-2.339,0-4.222-1.883-4.222-4.222v-69.979
		c0-2.332,1.883-4.214,4.222-4.214l0,0c2.332,0,4.214,1.883,4.214,4.214V192.208z"/>
	<path style="fill:#7A4D25;" d="M162.272,204.015c0,2.339-1.89,4.222-4.222,4.222l0,0c-2.332,0-4.222-1.883-4.222-4.222v-69.979
		c0-2.332,1.89-4.214,4.222-4.214l0,0c2.332,0,4.222,1.883,4.222,4.214V204.015z"/>
	<path style="fill:#7A4D25;" d="M206.108,252.072c0,2.339-1.89,4.222-4.222,4.222l0,0c-2.332,0-4.214-1.883-4.214-4.222v-69.979
		c0-2.332,1.883-4.214,4.214-4.214l0,0c2.332,0,4.222,1.883,4.222,4.214V252.072z"/>
</g>
<g>
	<path style="fill:#6D4116;" d="M371.365,268.512c0,2.332-1.898,4.214-4.222,4.214l0,0c-2.339,0-4.214-1.883-4.214-4.214v-69.979
		c0-2.339,1.875-4.222,4.214-4.222l0,0c2.324,0,4.222,1.883,4.222,4.222V268.512z"/>
	<path style="fill:#6D4116;" d="M396.65,319.097c0,2.339-1.875,4.222-4.214,4.222l0,0c-2.339,0-4.214-1.883-4.214-4.222v-69.979
		c0-2.332,1.875-4.214,4.214-4.214l0,0c2.339,0,4.214,1.883,4.214,4.214V319.097z"/>
	<path style="fill:#6D4116;" d="M250.793,430.398c0,2.339-1.875,4.222-4.214,4.222l0,0c-2.339,0-4.214-1.883-4.214-4.222v-69.979
		c0-2.332,1.875-4.214,4.214-4.214l0,0c2.339,0,4.214,1.883,4.214,4.214V430.398z"/>
	<path style="fill:#6D4116;" d="M344.379,313.205c0,2.332-1.883,4.214-4.214,4.214l0,0c-2.339,0-4.222-1.883-4.222-4.214v-69.986
		c0-2.332,1.883-4.214,4.222-4.214l0,0c2.332,0,4.214,1.883,4.214,4.214V313.205z"/>
</g>
</svg>