<?xml version="1.0" encoding="UTF-8" standalone="no"?>
<!-- Created with Inkscape (http://www.inkscape.org/) -->

<svg
   width="67.469635mm"
   height="290.60547mm"
   viewBox="0 0 67.469635 290.60547"
   version="1.1"
   id="svg1"
   xmlns="http://www.w3.org/2000/svg"
   xmlns:svg="http://www.w3.org/2000/svg">
  <defs
     id="defs1" />
  <g
     id="layer1"
     transform="translate(-50.671968,-2.683325)">
    <path
       style="display:inline;fill:#9f9f9f;fill-opacity:1;stroke-width:1.28097;stroke-linecap:round;stroke-linejoin:round"
       d="m 83.667698,293.28878 h 20.961912 c 0,0 -0.439,-2.74374 -1.97546,-10.31635 -1.53649,-7.57264 -0.87798,-30.1808 -1.64622,-38.08268 -0.76825,-7.90189 -2.085222,-28.97356 -1.426735,-35.66819 0.658485,-6.69467 5.031785,-5.27841 4.170445,-8.23113 -0.14283,-0.48922 -0.98299,0.0404 -1.95208,-0.0446 -1.1093,-0.0973 -2.393433,-0.8253 -3.096364,-1.82111 -1.316978,-1.86571 -1.865709,-21.07167 -2.524199,-28.31508 -0.658487,-7.24339 -0.877999,-24.36412 -1.865732,-31.27825 -0.987732,-6.91415 -2.304708,-21.18142 3.292466,-33.583 5.597149,-12.401564 5.487419,-16.681738 5.487419,-24.912866 0,-8.231126 5.59715,-16.133009 5.59715,-16.133009 0,0 -0.65849,-6.145906 -4.93866,-2.853464 -4.280201,3.292464 -9.218862,13.060056 -9.767619,17.998742 -0.548732,4.93866 -1.865708,16.681742 -5.926393,29.193047 -4.06071,12.51131 -4.280198,46.86253 -4.280198,46.86253 h -1.865708 c 0,0 -1.317002,-18.98646 -1.975489,-32.59523 -0.658489,-13.6088 4.060685,-30.400292 4.060685,-30.400292 0,0 -1.286185,-0.382402 -1.948014,-0.384122 -0.679815,-0.002 -2.002915,0.384122 -2.002915,0.384122 l 2.743709,-45.326075 c 0,0 2.36363,-6.523395 7.572638,-11.962568 0.272308,-0.284316 0.111836,-2.02785 -0.44435,-2.047651 -0.212056,-0.0073 -0.476038,1.557162 -2.4233,3.3983 -1.786284,1.566264 -3.497768,3.149037 -3.497768,3.149037 V 27.697842 c 0,0 8.56037,-8.670103 13.938057,-17.669474 0.75401,-1.261808 1.17258,-2.3418187 0.01695,-2.8071325 C 97.21425,6.1433528 95.982119,5.5337147 95.261807,7.8475016 93.859716,12.351157 85.751878,19.576518 85.751878,19.576518 H 82.020412 L 79.715703,7.7237059 c 0,0 -3.072929,0.1096619 -4.719172,1.6462194 -1.646222,1.5364647 -6.074762,-5.3336765 -7.220786,-6.6866003 -0.575723,0.1955943 -1.070061,2.7711352 0.0823,5.0209655 1.77665,3.4686945 5.163017,5.0678325 5.163017,5.0678325 0,0 2.743708,8.121371 2.085221,9.987104 -0.65849,1.865708 -11.084592,-2.524222 -11.084592,-2.524222 0,0 -2.743711,1.207245 0,2.30471 2.743708,1.097488 7.572638,3.182709 9.767615,3.182709 2.194953,0 1.536463,16.462253 1.536463,16.462253 h -2.08522 c 0,0 -1.838282,-5.898992 -2.304709,-8.231127 -0.143308,-0.716464 -1.25181,-0.498259 -2.1973,-0.01937 -0.20189,0.591845 0.195353,1.876384 0.660812,3.311323 1.317001,4.060685 2.743708,8.011639 3.62171,9.109127 0.877976,1.097489 -0.219561,36.107194 -1.207244,37.643657 -0.987734,1.536489 -4.609418,-7.023883 -5.926395,-12.401543 -0.378506,-1.545519 -0.407919,-3.243109 -1.367716,-3.91111 -1.742371,1.494466 -3.477627,1.578708 -3.790458,3.142864 -0.439001,2.194977 6.03615,17.449987 6.03615,17.449987 0,0 2.52422,6.804394 1.755977,8.340883 -0.768245,1.536464 -4.82893,0.32922 -4.82893,0.32922 0,0 -0.987732,3.841192 0.878,5.706922 1.865708,1.86572 3.731441,3.84121 3.731441,3.84121 0,0 1.426733,8.67009 -1.207243,7.90185 -2.633954,-0.76821 -8.121372,-5.59715 -10.755324,-9.87734 -2.633978,-4.28018 -6.804396,-5.816666 -5.377662,-2.19496 1.426707,3.62169 5.15815,5.9264 5.59715,6.8044 0.438999,0.87797 -1.755977,4.06068 1.426732,5.37767 3.18271,1.31697 10.42608,6.25565 10.316347,15.14527 -0.109666,8.88961 3.950929,36.32669 7.462883,41.37512 3.511953,5.04841 4.719174,6.8044 4.060686,7.68237 -0.658489,0.878 -4.38993,-0.65849 -7.462883,-3.07294 -3.072954,-2.41448 -4.938687,-1.0975 -2.743709,0.65848 2.194954,1.75597 7.133639,5.48743 9.218859,6.03617 2.085221,0.54873 2.963197,22.38864 2.963197,22.38864 0,0 -8.340883,-8.77985 -8.779858,-10.97482 -0.439001,-2.19496 -1.426733,-3.95094 -2.524222,-1.20722 -1.097488,2.74371 -4.060686,4.06068 -5.158174,3.62168 -1.097463,-0.43901 13.608813,17.77923 14.377033,21.73018 0.768245,3.95094 2.633977,10.20659 1.97549,12.51131 -0.658489,2.3047 -4.170443,-0.98773 -7.023907,-2.52423 -2.853464,-1.53647 -2.633952,2.96323 -1.426733,3.51195 1.207244,0.54873 8.121371,2.52423 8.231127,3.62172 0.109665,1.09746 3.292442,25.9006 2.524222,36.32667 -0.768246,10.42608 -0.329245,21.94968 -0.329245,21.94968 z"
       id="path1" />
    <path
       style="fill:#e4e4e4;fill-opacity:1;stroke-width:1.28097;stroke-linecap:round;stroke-linejoin:round"
       d="m 89.338245,77.806658 c 0,0 -0.232876,4.190605 -2.94894,1.862488 -2.716136,-2.328117 -3.880194,-2.328117 -4.112997,-1.629662 -0.232874,0.69843 1.629664,5.199446 3.569761,6.130704 1.940098,0.931233 2.638528,2.328092 3.725001,0.776039 1.08645,-1.552078 1.319252,-3.569784 2.793722,-3.802611 1.47447,-0.232875 3.336958,-2.87133 3.336958,-2.87133 0,0 3.259374,-9.312445 4.50102,-8.84684 1.24166,0.465627 3.25937,0.232873 3.10415,1.164058 -0.15517,0.931257 -2.1729,8.691623 -1.47447,8.924449 0.69843,0.232875 3.80259,0.776039 4.57863,0.465629 0.77604,-0.310436 1.31925,-2.250533 0.77604,-3.336983 -0.54324,-1.08645 -2.25051,-1.164034 -2.25051,-1.164034 l 0.62082,-4.190607 c 0,0 4.26821,-3.880195 6.98436,-4.88906 2.71613,-1.008842 5.82028,-3.64737 5.58747,-6.441091 -0.23289,-2.793745 -3.56978,-8.846841 -3.64738,-11.019741 -0.0777,-2.172923 2.01771,-2.716137 1.08644,-4.811451 -0.93122,-2.095291 -1.70726,-3.181742 -3.56977,-4.42341 -1.86249,-1.241665 -8.14839,-5.509857 -8.14839,-5.509857 0,0 0.62082,-2.793745 0,-3.725002 -0.62082,-0.931232 -2.56092,-4.112997 -5.742684,-3.104131 -3.181766,1.008839 -3.569784,4.345799 -3.569784,5.354664 0,1.008841 -0.310411,2.793721 0.07771,3.104131 0.38802,0.310413 1.940098,0.46563 1.940098,1.241668 0,0.77604 0.07771,2.328117 0.698429,2.328117 0.620847,0 1.629688,-0.155169 1.629688,-0.155169 0,0 0.15517,2.56092 -0.776038,3.957805 -0.931257,1.39686 -1.707296,2.405726 -1.707296,3.026548 v 3.298153 h -0.54321 c 0,0 0.15517,-1.901292 -0.543235,-1.901292 -0.698432,0 -6.169486,-0.07771 -6.169486,-0.07771 v -1.39686 h -1.513273 v 1.47447 c 0,0 -1.094947,-0.137741 -1.241668,0.11644 -0.146696,0.254104 -0.271606,1.358057 -0.310411,2.1729 -0.03873,0.814844 0.426825,1.241667 0.426825,2.05651 0,0.814845 -0.232876,1.513274 -1.202863,1.474471 -0.970061,-0.03873 -12.533014,1.008841 -12.533014,1.008841 0,0 -1.784881,1.047645 0.07769,1.047645 1.862491,0 12.533016,0.03873 12.533016,0.03873 0,0 0.232874,1.746076 0.931232,1.707271 0.698431,-0.03873 0.03873,-1.125253 1.125254,-1.125253 1.08645,0 5.471078,0.89245 6.47992,0.271605 1.00884,-0.620821 2.638528,-2.250508 3.841391,-2.1729 1.202862,0.07771 3.453369,2.25051 1.280471,4.074193 -2.172923,1.823685 -5.820294,6.130705 -6.596332,8.769233 -0.77604,2.638527 -0.659626,6.829134 -1.435665,8.187191 -0.776039,1.35808 -0.349216,3.104155 -0.776039,2.910158 -0.426823,-0.194143 -0.7276,-0.419369 -0.892453,-0.349215 -0.17986,0.137739 0,-2.5e-5 0,-2.5e-5 z"
       id="path2" />
  </g>
</svg>
